<svg xmlns="http://www.w3.org/2000/svg" viewBox="0 0 32 32">
  <defs>
    <linearGradient id="bg" x1="0%" y1="0%" x2="100%" y2="100%">
      <stop offset="0%" stop-color="#e879b0"/>
      <stop offset="100%" stop-color="#b78ad5"/>
    </linearGradient>
    <linearGradient id="shine" x1="0%" y1="0%" x2="0%" y2="100%">
      <stop offset="0%" stop-color="white" stop-opacity="0.25"/>
      <stop offset="100%" stop-color="white" stop-opacity="0"/>
    </linearGradient>
  </defs>

  <!-- Rounded square background -->
  <rect width="32" height="32" rx="7" fill="url(#bg)"/>
  <!-- Top shine -->
  <rect width="32" height="16" rx="7" fill="url(#shine)"/>

  <!-- Left page of open book -->
  <path
    d="M5 22 L5 11 Q5 10 6 9.5 Q9.5 8.5 14 9.5 L14 23 Q9.5 22 6 22.5 Q5 22.5 5 22 Z"
    fill="white" opacity="0.92"
  />

  <!-- Right page of open book -->
  <path
    d="M27 22 L27 11 Q27 10 26 9.5 Q22.5 8.5 18 9.5 L18 23 Q22.5 22 26 22.5 Q27 22.5 27 22 Z"
    fill="white" opacity="0.75"
  />

  <!-- Spine -->
  <rect x="14" y="9" width="4" height="14" fill="#c4578a" opacity="0.2" rx="0.5"/>

  <!-- Heart on left page -->
  <path
    d="M7.8 15.2 C7.8 13.8 8.8 13 9.7 13 C10.3 13 10.85 13.4 10.85 13.4 C10.85 13.4 11.4 13 12 13 C12.9 13 13.9 13.8 13.9 15.2 C13.9 17 10.85 19.2 10.85 19.2 C10.85 19.2 7.8 17 7.8 15.2 Z"
    fill="#e879b0" opacity="0.82"
  />

  <!-- Small star on right page -->
  <path
    d="M22 13 L22.5 14.6 L24.2 14.6 L22.85 15.6 L23.35 17.2 L22 16.2 L20.65 17.2 L21.15 15.6 L19.8 14.6 L21.5 14.6 Z"
    fill="#f59e0b" opacity="0.75"
  />
</svg>
